<?xml version="1.0" standalone="no"?>
<!DOCTYPE svg PUBLIC "-//W3C//DTD SVG 20010904//EN"
 "http://www.w3.org/TR/2001/REC-SVG-20010904/DTD/svg10.dtd">
<svg version="1.0" xmlns="http://www.w3.org/2000/svg"
 width="423.000000pt" height="423.000000pt" viewBox="0 0 423.000000 423.000000"
 preserveAspectRatio="xMidYMid meet">
<metadata>
Created by potrace 1.11, written by Peter Selinger 2001-2013
</metadata>
<g transform="translate(0.000000,423.000000) scale(0.100000,-0.100000)"
fill="#000000" stroke="none">
<path d="M1395 4026 c-132 -43 -235 -133 -294 -255 -36 -75 -36 -77 -36 -206
0 -129 0 -131 36 -206 49 -102 126 -179 228 -228 75 -36 77 -36 206 -36 121 0
134 2 189 27 32 16 61 26 65 23 16 -9 182 -256 261 -387 l83 -137 -63 -61
c-44 -44 -72 -84 -98 -138 -37 -76 -37 -78 -37 -207 0 -129 0 -131 36 -206 49
-102 126 -179 228 -227 71 -34 84 -37 196 -42 l119 -5 19 -60 c31 -103 86
-325 110 -445 l23 -115 -76 -36 c-102 -48 -180 -125 -229 -228 -36 -75 -36
-77 -36 -206 0 -129 0 -131 36 -206 49 -102 126 -179 228 -228 75 -36 77 -36
206 -36 129 0 131 0 206 36 102 49 179 126 228 228 36 75 36 77 36 206 0 129
0 131 -36 206 -67 139 -207 246 -348 266 l-55 8 -13 75 c-24 132 -72 341 -111
476 l-38 131 39 29 c55 42 103 103 140 181 31 66 32 72 32 198 0 129 0 131
-36 206 -25 51 -56 95 -94 134 -39 38 -83 69 -134 94 -73 35 -80 36 -200 38
l-124 2 -106 176 c-58 96 -143 227 -187 290 -63 87 -79 117 -69 125 6 5 27 43
46 82 33 71 34 76 34 203 0 129 0 131 -36 206 -49 102 -126 179 -228 228 -72
34 -82 36 -191 38 -75 2 -129 -2 -155 -11z m235 -228 c90 -38 163 -143 163
-233 0 -54 -36 -135 -81 -178 -46 -45 -124 -80 -177 -80 -53 0 -131 35 -177
80 -44 43 -81 123 -81 178 0 78 66 184 138 223 84 44 132 46 215 10z m870
-1350 c90 -38 163 -143 163 -233 0 -54 -36 -135 -81 -178 -46 -45 -124 -80
-177 -80 -53 0 -131 35 -177 80 -44 43 -81 123 -81 178 0 78 66 184 138 223
84 44 132 46 215 10z m390 -1570 c90 -38 163 -143 163 -233 0 -92 -73 -194
-168 -236 -63 -28 -117 -28 -180 0 -95 42 -168 144 -168 236 0 78 66 184 138
223 84 44 132 46 215 10z"/>
</g>
</svg>
